<svg xmlns="http://www.w3.org/2000/svg" viewBox="0 0 436.15 94.48"><defs><style>.cls-1{fill:#fff;}</style></defs><title>Asset 14</title><g id="Layer_2" data-name="Layer 2"><g id="Layer_1-2" data-name="Layer 1"><polygon class="cls-1" points="13.33 8.38 13.33 25.13 55.21 25.13 55.21 33.5 13.33 33.5 13.33 50.25 63.59 50.25 63.59 58.63 4.96 58.63 4.96 0 63.59 0 63.59 8.38 13.33 8.38"/><path class="cls-1" d="M120.57,41.88V0H129V41.88a16.1,16.1,0,0,1-2.22,8.25,17.41,17.41,0,0,1-6,6.15,15.85,15.85,0,0,1-8.5,2.35H87.07a16.33,16.33,0,0,1-8.29-2.22,17,17,0,0,1-6.16-6,16.18,16.18,0,0,1-2.3-8.5V0h8.37V41.88a8.45,8.45,0,0,0,8.38,8.37H112.2a8.43,8.43,0,0,0,8.37-8.37Z" transform="translate(-0.04)"/><path class="cls-1" d="M153.23,0h25.12a15.55,15.55,0,0,1,8.25,2.26,18.25,18.25,0,0,1,6.08,6,16.21,16.21,0,0,1,2.42,8.46h-8.37a8.06,8.06,0,0,0-2.47-5.9,8.06,8.06,0,0,0-5.91-2.47H153.23a8.06,8.06,0,0,0-5.91,2.47,8.06,8.06,0,0,0-2.47,5.9V41.88a8.43,8.43,0,0,0,8.38,8.37h25.12a8.43,8.43,0,0,0,8.38-8.37h8.37a16.1,16.1,0,0,1-2.22,8.25,17.41,17.41,0,0,1-6,6.15,15.83,15.83,0,0,1-8.5,2.35H153.23a16.3,16.3,0,0,1-8.29-2.22,17,17,0,0,1-6.16-6,16.08,16.08,0,0,1-2.3-8.5V16.75a16,16,0,0,1,2.22-8.29,17.18,17.18,0,0,1,6-6.07A16.7,16.7,0,0,1,153.23,0Z" transform="translate(-0.04)"/><polygon class="cls-1" points="210.13 0 210.13 50.25 260.38 50.25 260.38 58.63 201.75 58.63 201.75 0 210.13 0"/><rect class="cls-1" x="264.56" width="8.38" height="58.63"/><path class="cls-1" d="M340,16.75V41.88a16.1,16.1,0,0,1-2.22,8.25,17.41,17.41,0,0,1-6,6.15,15.85,15.85,0,0,1-8.5,2.35H281.35V0h41.88a15.6,15.6,0,0,1,8.25,2.26,18.23,18.23,0,0,1,6.07,6A16.31,16.31,0,0,1,340,16.75ZM331.6,41.88V16.75a8,8,0,0,0-2.47-5.9,8,8,0,0,0-5.9-2.47h-33.5V50.25h33.5a8.43,8.43,0,0,0,8.37-8.37Z" transform="translate(-0.04)"/><path class="cls-1" d="M3.91,85.49,2.17,89.92H0L6.22,74.78H8.55l6.08,15.14H12.54l-1.73-4.43Zm3.45-9.16c-.12.4-.27.85-.44,1.34s-.32.92-.46,1.29L4.53,83.89h5.66l-1.94-5c-.1-.25-.23-.61-.4-1.07S7.52,76.87,7.36,76.33Z" transform="translate(-0.04)"/><path class="cls-1" d="M18.09,74V89.92H16.16V74Z" transform="translate(-0.04)"/><path class="cls-1" d="M25.45,94.48a5.48,5.48,0,0,1-3-.74A3.37,3.37,0,0,1,21,91.61l1.94-.27a2,2,0,0,0,.86,1.24A3.1,3.1,0,0,0,25.5,93a2.7,2.7,0,0,0,2.17-.85,3.82,3.82,0,0,0,.72-2.53V87.76h0a4,4,0,0,1-1.5,1.68,4.31,4.31,0,0,1-2.24.56,3.6,3.6,0,0,1-3.14-1.41,7.85,7.85,0,0,1-1-4.46,7.79,7.79,0,0,1,1.07-4.55,3.82,3.82,0,0,1,3.29-1.47,4,4,0,0,1,2.14.57,3.72,3.72,0,0,1,1.4,1.6h0c0-.14,0-.37,0-.67s0-.59.06-.86a3.5,3.5,0,0,1,.05-.46h1.84c0,.39-.07,1.19-.07,2.41v8.88a5,5,0,0,1-1.21,3.68A5,5,0,0,1,25.45,94.48Zm2.94-10.37a5.73,5.73,0,0,0-.86-3.34,2.63,2.63,0,0,0-2.21-1.22,2.36,2.36,0,0,0-2.16,1.08,6.75,6.75,0,0,0-.68,3.48,6.77,6.77,0,0,0,.64,3.42,2.31,2.31,0,0,0,2.17,1,2.65,2.65,0,0,0,2.24-1.19A5.54,5.54,0,0,0,28.39,84.11Z" transform="translate(-0.04)"/><path class="cls-1" d="M43.11,84.1a6.65,6.65,0,0,1-1.34,4.54,5,5,0,0,1-3.9,1.49A4.72,4.72,0,0,1,34,88.58a6.78,6.78,0,0,1-1.3-4.48A6.75,6.75,0,0,1,34,79.58a4.89,4.89,0,0,1,3.9-1.5,4.88,4.88,0,0,1,3.92,1.47A6.85,6.85,0,0,1,43.11,84.1Zm-2,0a6.53,6.53,0,0,0-.72-3.5A2.63,2.63,0,0,0,38,79.51a2.74,2.74,0,0,0-2.45,1.11,6.24,6.24,0,0,0-.76,3.48,6.4,6.4,0,0,0,.75,3.45,2.59,2.59,0,0,0,2.34,1.15,2.78,2.78,0,0,0,2.49-1.11A6.39,6.39,0,0,0,41.08,84.1Z" transform="translate(-0.04)"/><path class="cls-1" d="M47.49,83.86v6.06H45.56V81c0-.41,0-.84,0-1.29s0-.92,0-1.42h1.83c0,.33,0,.63,0,.9s0,.49,0,.69,0,.36,0,.49,0,.23,0,.3h0A6,6,0,0,1,48.16,79a2,2,0,0,1,.86-.75,3,3,0,0,1,1.19-.21,2.94,2.94,0,0,1,.78.11V80a3.83,3.83,0,0,0-1-.11,2,2,0,0,0-1.83,1A5.65,5.65,0,0,0,47.49,83.86Z" transform="translate(-0.04)"/><path class="cls-1" d="M54.76,74v1.84H52.83V74Zm0,4.31V89.92H52.83V78.29Z" transform="translate(-0.04)"/><path class="cls-1" d="M62.2,89.83a7.47,7.47,0,0,1-2,.26,2.2,2.2,0,0,1-1.74-.66,3,3,0,0,1-.58-2V79.7H56.58V78.29H58l.57-2.6h1.29v2.6H62V79.7H59.86V87a1.9,1.9,0,0,0,.27,1.17,1.14,1.14,0,0,0,.95.34,6.39,6.39,0,0,0,1.12-.15Z" transform="translate(-0.04)"/><path class="cls-1" d="M65.76,80.28a4.4,4.4,0,0,1,1.5-1.67,4.27,4.27,0,0,1,2.22-.53,3.63,3.63,0,0,1,2.79,1,4.51,4.51,0,0,1,.9,3.11v7.75h-2V82.55a3.71,3.71,0,0,0-.55-2.28,2.24,2.24,0,0,0-1.84-.7,2.77,2.77,0,0,0-2.19,1,3.73,3.73,0,0,0-.82,2.54v6.86H63.88V74h1.94v4.14c0,.29,0,.59,0,.91s0,.59,0,.83a4.14,4.14,0,0,1,0,.42Z" transform="translate(-0.04)"/><path class="cls-1" d="M78,83.18v6.74H76.12V80.78c0-.68,0-1.23,0-1.64a6.51,6.51,0,0,0,0-.85h1.83c0,.16,0,.36,0,.58s0,.47,0,.72,0,.48,0,.69h0a4.08,4.08,0,0,1,1.43-1.72,3.75,3.75,0,0,1,2-.48,3.65,3.65,0,0,1,2.09.53,2.8,2.8,0,0,1,1.07,1.67h0A4,4,0,0,1,86,78.6a3.88,3.88,0,0,1,2.07-.52,3.15,3.15,0,0,1,2.56,1,4.88,4.88,0,0,1,.8,3.13v7.75H89.56V82.55a4.29,4.29,0,0,0-.46-2.33,1.93,1.93,0,0,0-1.67-.65,2.34,2.34,0,0,0-2,.94,4.4,4.4,0,0,0-.7,2.67v6.74H82.84V82.55a4.2,4.2,0,0,0-.46-2.33,1.91,1.91,0,0,0-1.66-.65,2.33,2.33,0,0,0-2,1A4.31,4.31,0,0,0,78,83.18Z" transform="translate(-0.04)"/><path class="cls-1" d="M103.13,86.71a2.93,2.93,0,0,1-1.25,2.53,5.8,5.8,0,0,1-3.47.89,6.57,6.57,0,0,1-3.35-.71,3.41,3.41,0,0,1-1.53-2.23l1.71-.33a2.12,2.12,0,0,0,1,1.37,4.43,4.43,0,0,0,2.15.43,4,4,0,0,0,2.15-.45,1.5,1.5,0,0,0,.69-1.35,1.44,1.44,0,0,0-.48-1.12A3.65,3.65,0,0,0,99.25,85c-.83-.22-1.49-.4-2-.55a11.05,11.05,0,0,1-1.14-.37,4.85,4.85,0,0,1-.63-.29,3.49,3.49,0,0,1-1.11-1,2.6,2.6,0,0,1-.4-1.45,2.83,2.83,0,0,1,1.14-2.43,5.54,5.54,0,0,1,3.3-.83,6,6,0,0,1,3.06.68A3.09,3.09,0,0,1,102.92,81l-1.74.21a1.75,1.75,0,0,0-.86-1.18,4.65,4.65,0,0,0-3.82,0,1.33,1.33,0,0,0-.63,1.2,1.38,1.38,0,0,0,.36,1,2.78,2.78,0,0,0,1.35.62c.9.22,1.75.45,2.56.71a6.42,6.42,0,0,1,1.74.75,2.84,2.84,0,0,1,1.25,2.48Z" transform="translate(-0.04)"/><path class="cls-1" d="M110.81,85.93a4.13,4.13,0,0,1,.91-2.64,7.28,7.28,0,0,1,2.77-2,7.55,7.55,0,0,1-.61-1.58,6.18,6.18,0,0,1-.26-1.66,3.22,3.22,0,0,1,1-2.5,4.75,4.75,0,0,1,5.41-.07,2.75,2.75,0,0,1,1,2.24,2.93,2.93,0,0,1-.34,1.4,3.91,3.91,0,0,1-1.1,1.25,9.35,9.35,0,0,1-1.25.78,16.4,16.4,0,0,1-1.7.78,24,24,0,0,0,3.14,4.42,13.11,13.11,0,0,0,1.84-4.4l1.56.46a15.86,15.86,0,0,1-2.28,5,3.1,3.1,0,0,0,2.24,1,3.92,3.92,0,0,0,1.25-.17v1.45a4,4,0,0,1-1.51.24,4.59,4.59,0,0,1-1.75-.34,4.34,4.34,0,0,1-1.45-1,5.88,5.88,0,0,1-4,1.45A5.27,5.27,0,0,1,112.07,89,3.9,3.9,0,0,1,110.81,85.93Zm7.76,1.66q-1.06-1.26-1.92-2.49a25.69,25.69,0,0,1-1.5-2.42c-1.69.72-2.54,1.8-2.54,3.23a2.67,2.67,0,0,0,.83,2.06,3.28,3.28,0,0,0,2.27.76,4.16,4.16,0,0,0,1.53-.3A4.07,4.07,0,0,0,118.57,87.59Zm.8-9.84a1.64,1.64,0,0,0-.54-1.27,2.12,2.12,0,0,0-1.46-.48,1.9,1.9,0,0,0-2.11,2.08,6.05,6.05,0,0,0,.7,2.62,14.36,14.36,0,0,0,2.08-1,3.37,3.37,0,0,0,1-.9A1.78,1.78,0,0,0,119.37,77.75Z" transform="translate(-0.04)"/><path class="cls-1" d="M144.33,79.34a4.74,4.74,0,0,1-.63,2.48,4.26,4.26,0,0,1-1.8,1.63,6.27,6.27,0,0,1-2.78.57h-4.45v5.9h-2V74.78H139A6,6,0,0,1,142.94,76,4.2,4.2,0,0,1,144.33,79.34Zm-2.06,0c0-2-1.18-2.93-3.52-2.93h-4.08v6h4.16a3.77,3.77,0,0,0,2.58-.76A2.89,2.89,0,0,0,142.27,79.36Z" transform="translate(-0.04)"/><path class="cls-1" d="M149,83.86v6.06H147V81c0-.41,0-.84,0-1.29s0-.92-.05-1.42h1.83c0,.33,0,.63,0,.9s0,.49,0,.69,0,.36,0,.49,0,.23,0,.3h0a6,6,0,0,1,.71-1.63,2,2,0,0,1,.86-.75,3,3,0,0,1,1.19-.21,2.94,2.94,0,0,1,.78.11V80a3.83,3.83,0,0,0-1-.11,2,2,0,0,0-1.84,1A5.76,5.76,0,0,0,149,83.86Z" transform="translate(-0.04)"/><path class="cls-1" d="M156.22,74v1.84h-1.93V74Zm0,4.31V89.92h-1.93V78.29Z" transform="translate(-0.04)"/><path class="cls-1" d="M168.63,78.29l-4.34,11.63H162l-4.22-11.63h2.06l2.56,7.57c0,.14.14.43.26.85l.48,1.69c.09-.28.19-.57.28-.87s.17-.6.26-.89.18-.54.26-.76l2.64-7.59Z" transform="translate(-0.04)"/><path class="cls-1" d="M173.15,90.13a3.14,3.14,0,0,1-3.51-3.46,3.38,3.38,0,0,1,1.19-2.77,6.33,6.33,0,0,1,3.83-1l2.61,0v-.64a2.85,2.85,0,0,0-.6-2,2.62,2.62,0,0,0-1.89-.61,3.26,3.26,0,0,0-1.9.44,1.94,1.94,0,0,0-.7,1.41l-2-.18q.5-3.14,4.66-3.14a4.77,4.77,0,0,1,3.3,1,3.75,3.75,0,0,1,1.1,2.91v5a2.89,2.89,0,0,0,.23,1.29.87.87,0,0,0,.86.44,2.86,2.86,0,0,0,.63-.08v1.2a6,6,0,0,1-.74.13,6.28,6.28,0,0,1-.75,0,1.93,1.93,0,0,1-1.56-.56,2.92,2.92,0,0,1-.56-1.77h-.06a4.72,4.72,0,0,1-1.73,1.89A4.77,4.77,0,0,1,173.15,90.13Zm4.12-5.95-2.12,0a6.27,6.27,0,0,0-2.06.28,2.26,2.26,0,0,0-1.09.8,2.42,2.42,0,0,0-.37,1.41,2,2,0,0,0,.51,1.46,2,2,0,0,0,1.45.51,3.64,3.64,0,0,0,1.89-.48,3.65,3.65,0,0,0,1.79-3.06Z" transform="translate(-0.04)"/><path class="cls-1" d="M186.88,90.13a4.57,4.57,0,0,1-3.72-1.54,6.85,6.85,0,0,1-1.28-4.49,6.82,6.82,0,0,1,1.29-4.48,4.52,4.52,0,0,1,3.69-1.54,4.67,4.67,0,0,1,3,.92,4.09,4.09,0,0,1,1.48,2.55l-2,.15a2.57,2.57,0,0,0-.76-1.54,2.47,2.47,0,0,0-1.74-.57,2.49,2.49,0,0,0-2.23,1,6.44,6.44,0,0,0-.68,3.44,6.36,6.36,0,0,0,.73,3.44,2.46,2.46,0,0,0,2.2,1.12,2.65,2.65,0,0,0,1.72-.56,2.58,2.58,0,0,0,.86-1.72l2,.13a4.2,4.2,0,0,1-.75,1.94,3.93,3.93,0,0,1-1.54,1.28A5.07,5.07,0,0,1,186.88,90.13Z" transform="translate(-0.04)"/><path class="cls-1" d="M194,94.48a6.43,6.43,0,0,1-1.33-.12V92.91a5,5,0,0,0,.9.07,2.5,2.5,0,0,0,1.67-.67,5.59,5.59,0,0,0,1.37-2.45L192,78.29h2.06l2.45,6.43q.27.69.57,1.56c.21.58.36,1.09.48,1.53l.54-1.51c.18-.5.36-1,.53-1.51l2.23-6.5h2l-4.47,11.63c-.24.61-.48,1.15-.7,1.61a8.8,8.8,0,0,1-.64,1.15A4.55,4.55,0,0,1,195.71,94,3.41,3.41,0,0,1,194,94.48Z" transform="translate(-0.04)"/><path class="cls-1" d="M212.91,83.63v6.29h-2V74.78H218a6,6,0,0,1,4,1.15,3.88,3.88,0,0,1,1.39,3.18,4.24,4.24,0,0,1-1,2.84,4.47,4.47,0,0,1-2.72,1.45l4.3,6.52h-2.36l-3.93-6.29Zm8.35-4.5a2.38,2.38,0,0,0-.9-2,4.17,4.17,0,0,0-2.58-.69h-4.87V82h5a3.73,3.73,0,0,0,2.51-.76A2.63,2.63,0,0,0,221.26,79.13Z" transform="translate(-0.04)"/><path class="cls-1" d="M227.91,84.51a5,5,0,0,0,.82,3.09,2.86,2.86,0,0,0,2.42,1.08,3.6,3.6,0,0,0,2-.5,2.54,2.54,0,0,0,1-1.28l1.7.48c-.7,1.84-2.28,2.75-4.74,2.75a5,5,0,0,1-3.93-1.53A6.81,6.81,0,0,1,225.88,84a6.51,6.51,0,0,1,1.34-4.41,4.85,4.85,0,0,1,3.86-1.54,4.69,4.69,0,0,1,3.84,1.55,7.14,7.14,0,0,1,1.28,4.63v.25ZM234.2,83a4.55,4.55,0,0,0-.93-2.68,2.89,2.89,0,0,0-2.23-.84,2.8,2.8,0,0,0-2.23.94,4.08,4.08,0,0,0-.88,2.58Z" transform="translate(-0.04)"/><path class="cls-1" d="M247.38,86.71a2.92,2.92,0,0,1-1.24,2.53,5.82,5.82,0,0,1-3.47.89,6.55,6.55,0,0,1-3.35-.71,3.41,3.41,0,0,1-1.53-2.23l1.71-.33a2.09,2.09,0,0,0,1,1.37,4.4,4.4,0,0,0,2.15.43,4,4,0,0,0,2.15-.45,1.52,1.52,0,0,0,.68-1.35,1.46,1.46,0,0,0-.47-1.12A3.7,3.7,0,0,0,243.5,85c-.83-.22-1.49-.4-2-.55a10.73,10.73,0,0,1-1.13-.37,4.49,4.49,0,0,1-.64-.29,3.34,3.34,0,0,1-1.1-1,2.52,2.52,0,0,1-.4-1.45,2.85,2.85,0,0,1,1.13-2.43,5.59,5.59,0,0,1,3.31-.83,5.92,5.92,0,0,1,3.05.68A3.07,3.07,0,0,1,247.18,81l-1.74.21a1.74,1.74,0,0,0-.87-1.18,3.64,3.64,0,0,0-1.88-.42,3.75,3.75,0,0,0-1.94.4,1.35,1.35,0,0,0-.62,1.2,1.38,1.38,0,0,0,.36,1,2.73,2.73,0,0,0,1.35.62c.89.22,1.75.45,2.56.71a6.73,6.73,0,0,1,1.74.75,3.12,3.12,0,0,1,.92,1A3,3,0,0,1,247.38,86.71Z" transform="translate(-0.04)"/><path class="cls-1" d="M251.14,84.51A5,5,0,0,0,252,87.6a2.86,2.86,0,0,0,2.42,1.08,3.62,3.62,0,0,0,2-.5,2.59,2.59,0,0,0,1-1.28l1.69.48c-.69,1.84-2.27,2.75-4.73,2.75a5,5,0,0,1-3.93-1.53A6.76,6.76,0,0,1,249.11,84a6.46,6.46,0,0,1,1.35-4.41,4.83,4.83,0,0,1,3.85-1.54,4.73,4.73,0,0,1,3.85,1.55,7.14,7.14,0,0,1,1.27,4.63v.25Zm6.3-1.48a4.49,4.49,0,0,0-.94-2.68,2.85,2.85,0,0,0-2.22-.84,2.8,2.8,0,0,0-2.23.94,4.08,4.08,0,0,0-.89,2.58Z" transform="translate(-0.04)"/><path class="cls-1" d="M264.86,90.13a3.47,3.47,0,0,1-2.63-.92,3.52,3.52,0,0,1-.88-2.54,3.38,3.38,0,0,1,1.18-2.77,6.33,6.33,0,0,1,3.83-1l2.61,0v-.64a2.85,2.85,0,0,0-.6-2,2.58,2.58,0,0,0-1.89-.61,3.21,3.21,0,0,0-1.89.44,2,2,0,0,0-.71,1.41l-2-.18c.33-2.09,1.89-3.14,4.66-3.14a4.75,4.75,0,0,1,3.3,1A3.72,3.72,0,0,1,270.93,82v5a2.91,2.91,0,0,0,.22,1.29.88.88,0,0,0,.86.44,3,3,0,0,0,.64-.08v1.2a6.37,6.37,0,0,1-.74.13,6.45,6.45,0,0,1-.76,0,2,2,0,0,1-1.56-.56,2.92,2.92,0,0,1-.55-1.77H269a4.71,4.71,0,0,1-1.72,1.89A4.8,4.8,0,0,1,264.86,90.13ZM269,84.18l-2.11,0a6.39,6.39,0,0,0-2.07.28,2.23,2.23,0,0,0-1.08.8,2.42,2.42,0,0,0-.38,1.41,1.78,1.78,0,0,0,2,2,3.64,3.64,0,0,0,1.89-.48A3.61,3.61,0,0,0,269,85.14Z" transform="translate(-0.04)"/><path class="cls-1" d="M276.11,83.86v6.06h-1.94V81c0-.41,0-.84,0-1.29s0-.92-.05-1.42h1.82c0,.33,0,.63,0,.9s0,.49,0,.69,0,.36,0,.49v.3h0a6.35,6.35,0,0,1,.71-1.63,2.08,2.08,0,0,1,.86-.75,3.22,3.22,0,0,1,2-.1V80a3.93,3.93,0,0,0-1-.11,2,2,0,0,0-1.84,1A5.76,5.76,0,0,0,276.11,83.86Z" transform="translate(-0.04)"/><path class="cls-1" d="M285.91,90.13a4.57,4.57,0,0,1-3.72-1.54,6.9,6.9,0,0,1-1.28-4.49,6.82,6.82,0,0,1,1.29-4.48,4.53,4.53,0,0,1,3.69-1.54,4.67,4.67,0,0,1,3,.92,4,4,0,0,1,1.48,2.55l-2,.15a2.57,2.57,0,0,0-.76-1.54,2.93,2.93,0,0,0-4,.45,6.42,6.42,0,0,0-.69,3.44,6.36,6.36,0,0,0,.73,3.44,2.47,2.47,0,0,0,2.2,1.12,2.65,2.65,0,0,0,1.72-.56,2.54,2.54,0,0,0,.86-1.72l1.95.13a4.3,4.3,0,0,1-.74,1.94,4,4,0,0,1-1.55,1.28A5,5,0,0,1,285.91,90.13Z" transform="translate(-0.04)"/><path class="cls-1" d="M294.38,80.28a3.8,3.8,0,0,1,3.72-2.2,3.59,3.59,0,0,1,2.78,1,4.51,4.51,0,0,1,.9,3.11v7.75h-1.94V82.55a3.7,3.7,0,0,0-.56-2.28,2.23,2.23,0,0,0-1.84-.7,2.77,2.77,0,0,0-2.19,1,3.78,3.78,0,0,0-.82,2.54v6.86H292.5V74h1.93v4.14c0,.29,0,.59,0,.91s0,.59,0,.83,0,.37,0,.42Z" transform="translate(-0.04)"/><path class="cls-1" d="M317.17,90.13a7.16,7.16,0,0,1-3.24-.69,5,5,0,0,1-2.15-2,5.84,5.84,0,0,1-.76-3.06V74.78h2.05v9.47a4.3,4.3,0,0,0,1.05,3.14,4.06,4.06,0,0,0,3,1.08,3.91,3.91,0,0,0,4.31-4.36V74.78h2v9.44a6.09,6.09,0,0,1-.78,3.16,5.23,5.23,0,0,1-2.2,2A7.5,7.5,0,0,1,317.17,90.13Z" transform="translate(-0.04)"/><path class="cls-1" d="M328.67,83.18v6.74h-1.94V80.78c0-.68,0-1.23,0-1.64s0-.7-.05-.85h1.83c0,.14,0,.31,0,.52s0,.44,0,.69,0,.51,0,.78h0a4.25,4.25,0,0,1,1.55-1.7,4.33,4.33,0,0,1,2.17-.5,3.61,3.61,0,0,1,2.8,1,4.55,4.55,0,0,1,.89,3.11v7.75h-1.95V82.55a3.72,3.72,0,0,0-.54-2.32,2.25,2.25,0,0,0-1.85-.66,2.73,2.73,0,0,0-2.21,1A4,4,0,0,0,328.67,83.18Z" transform="translate(-0.04)"/><path class="cls-1" d="M340.85,74v1.84h-1.93V74Zm0,4.31V89.92h-1.93V78.29Z" transform="translate(-0.04)"/><path class="cls-1" d="M348.28,89.83a7.45,7.45,0,0,1-1.95.26,2.18,2.18,0,0,1-1.74-.66,2.9,2.9,0,0,1-.58-2V79.7h-1.34V78.29h1.41l.57-2.6h1.29v2.6h2.15V79.7h-2.15V87a1.82,1.82,0,0,0,.28,1.17,1.13,1.13,0,0,0,.95.34,6.3,6.3,0,0,0,1.11-.15Z" transform="translate(-0.04)"/><path class="cls-1" d="M375,81.81a10.31,10.31,0,0,1-.61,3.61,5.77,5.77,0,0,1-1.73,2.5,3.81,3.81,0,0,1-2.46.88,2.59,2.59,0,0,1-1.65-.47,1.75,1.75,0,0,1-.58-1.42c0-.12,0-.25,0-.38s0-.25,0-.37h-.07a5.11,5.11,0,0,1-1.76,2,4.14,4.14,0,0,1-2.26.66,3.24,3.24,0,0,1-2.61-1.1,4.55,4.55,0,0,1-.93-3,7.72,7.72,0,0,1,.7-3.27A6,6,0,0,1,363,79a4.61,4.61,0,0,1,2.75-.89,3.23,3.23,0,0,1,3.23,2h.07l.42-1.72h1.67l-1.24,5.43a12.72,12.72,0,0,0-.4,2.72,1.11,1.11,0,0,0,.22.76.81.81,0,0,0,.65.25,2.19,2.19,0,0,0,1.59-.74,5,5,0,0,0,1.14-2,9.36,9.36,0,0,0,.42-2.88,7,7,0,0,0-.83-3.42,5.58,5.58,0,0,0-2.38-2.28,8,8,0,0,0-3.65-.8,9,9,0,0,0-4.59,1.15,8,8,0,0,0-3.14,3.31,10.27,10.27,0,0,0-1.14,4.85,7.55,7.55,0,0,0,.85,3.66,5.7,5.7,0,0,0,2.43,2.43,7.79,7.79,0,0,0,3.72.85,12.79,12.79,0,0,0,3.16-.4,13.92,13.92,0,0,0,3.32-1.34l.59,1.21a13.35,13.35,0,0,1-3.38,1.42,14.38,14.38,0,0,1-3.69.49,9.57,9.57,0,0,1-4.52-1,7.09,7.09,0,0,1-3-2.92,9.07,9.07,0,0,1-1-4.37,11.15,11.15,0,0,1,1.34-5.46,9.63,9.63,0,0,1,3.71-3.83A10.35,10.35,0,0,1,366.65,74a9.7,9.7,0,0,1,4.47,1A6.81,6.81,0,0,1,374,77.69,8.22,8.22,0,0,1,375,81.81Zm-6.51.08a2.3,2.3,0,0,0-.71-1.76,2.62,2.62,0,0,0-1.89-.68,3,3,0,0,0-1.93.69A4.57,4.57,0,0,0,362.62,82a7,7,0,0,0-.48,2.61,3.47,3.47,0,0,0,.51,2,1.78,1.78,0,0,0,1.57.73,3.05,3.05,0,0,0,1.61-.46,4.72,4.72,0,0,0,1.36-1.25,5.33,5.33,0,0,0,.7-1.27,9.11,9.11,0,0,0,.44-1.41A5.33,5.33,0,0,0,368.48,81.89Z" transform="translate(-0.04)"/><path class="cls-1" d="M391.72,82.19a8.6,8.6,0,0,1-.92,4.13A6.57,6.57,0,0,1,388.21,89a7.65,7.65,0,0,1-3.85.94h-5.67V74.78h5a8.44,8.44,0,0,1,5.94,1.93A7.09,7.09,0,0,1,391.72,82.19Zm-2.06,0a5.67,5.67,0,0,0-1.54-4.29,6.21,6.21,0,0,0-4.46-1.47h-2.91V88.27h3.37a5.57,5.57,0,0,0,2.93-.74,5,5,0,0,0,1.92-2.1A7.1,7.1,0,0,0,389.66,82.19Z" transform="translate(-0.04)"/><path class="cls-1" d="M400.63,90.13a7.16,7.16,0,0,1-3.24-.69,5,5,0,0,1-2.15-2,5.84,5.84,0,0,1-.77-3.06V74.78h2.06v9.47a4.3,4.3,0,0,0,1.05,3.14,4,4,0,0,0,3,1.08,3.92,3.92,0,0,0,4.31-4.36V74.78h2v9.44a6.09,6.09,0,0,1-.78,3.16,5.23,5.23,0,0,1-2.2,2A7.5,7.5,0,0,1,400.63,90.13Z" transform="translate(-0.04)"/><path class="cls-1" d="M416.4,76.46V89.92h-2V76.46h-5.2V74.78H421.6v1.68Z" transform="translate(-0.04)"/><path class="cls-1" d="M426,82.9v7h-2V74.78h2v6.4h8.19v-6.4h2.05V89.92h-2.05v-7Z" transform="translate(-0.04)"/></g></g></svg>