<svg xmlns="http://www.w3.org/2000/svg" viewBox="0 0 355.06 199.51"><defs><style>.cls-1,.cls-2{fill:none;stroke:#231f20;stroke-width:5px;}.cls-1{stroke-miterlimit:10;}</style></defs><title>Asset 10</title><g id="Layer_2" data-name="Layer 2"><g id="Layer_1-2" data-name="Layer 1"><path class="cls-1" d="M99.76,197a97.26,97.26,0,1,1,0-194.51"/><line class="cls-2" x1="2.5" y1="92.63" x2="355.06" y2="92.63"/><polygon points="112.84 28.28 112.84 40.63 143.71 40.63 143.71 46.8 112.84 46.8 112.84 59.15 149.88 59.15 149.88 65.32 106.67 65.32 106.67 22.11 149.88 22.11 149.88 28.28 112.84 28.28"/><path d="M191.85,53V22.11H198V53a11.9,11.9,0,0,1-1.63,6.09,12.87,12.87,0,0,1-4.45,4.53,11.72,11.72,0,0,1-6.26,1.73H167.16a12,12,0,0,1-6.11-1.63,12.58,12.58,0,0,1-4.54-4.45,11.89,11.89,0,0,1-1.7-6.27V22.11H161V53a6.21,6.21,0,0,0,6.18,6.18h18.52A6.21,6.21,0,0,0,191.85,53Z"/><path d="M215.92,22.11h18.52a11.42,11.42,0,0,1,6.08,1.67A13.36,13.36,0,0,1,245,28.22a11.9,11.9,0,0,1,1.79,6.24h-6.17a6.21,6.21,0,0,0-6.17-6.18H215.92a6.23,6.23,0,0,0-6.18,6.18V53a6.23,6.23,0,0,0,6.18,6.18h18.52A6.21,6.21,0,0,0,240.61,53h6.17a11.9,11.9,0,0,1-1.63,6.09,12.78,12.78,0,0,1-4.45,4.53,11.72,11.72,0,0,1-6.26,1.73H215.92a12,12,0,0,1-6.11-1.63,12.58,12.58,0,0,1-4.54-4.45,11.89,11.89,0,0,1-1.7-6.27V34.46a11.86,11.86,0,0,1,1.64-6.12,12.67,12.67,0,0,1,4.44-4.47A12.32,12.32,0,0,1,215.92,22.11Z"/><polygon points="257.89 22.11 257.89 59.15 294.93 59.15 294.93 65.32 251.72 65.32 251.72 22.11 257.89 22.11"/><rect x="298.01" y="22.11" width="6.17" height="43.21"/><path d="M353.56,34.46V53a11.9,11.9,0,0,1-1.63,6.09,12.78,12.78,0,0,1-4.45,4.53,11.72,11.72,0,0,1-6.26,1.73H310.35V22.11h30.87a11.42,11.42,0,0,1,6.08,1.67,13.36,13.36,0,0,1,4.47,4.44A11.9,11.9,0,0,1,353.56,34.46ZM347.39,53V34.46a6.21,6.21,0,0,0-6.17-6.18h-24.7V59.15h24.7A6.21,6.21,0,0,0,347.39,53Z"/><path d="M112.43,120.84l-2,5H108l7-17.2h2.64l6.91,17.2h-2.38l-2-5Zm3.92-10.41c-.14.46-.3,1-.5,1.52s-.36,1-.53,1.47l-2.18,5.6h6.43l-2.21-5.67-.45-1.21C116.72,111.62,116.54,111.05,116.35,110.43Z"/><path d="M128.54,107.76v18.11h-2.19V107.76Z"/><path d="M136.91,131.06a6.16,6.16,0,0,1-3.45-.85,3.8,3.8,0,0,1-1.64-2.41l2.21-.32a2.19,2.19,0,0,0,1,1.41,3.51,3.51,0,0,0,2,.5,3,3,0,0,0,2.46-1,4.32,4.32,0,0,0,.82-2.88v-2.12h0a4.5,4.5,0,0,1-1.71,1.91A4.89,4.89,0,0,1,136,126a4.08,4.08,0,0,1-3.57-1.61,8.9,8.9,0,0,1-1.14-5.07,8.83,8.83,0,0,1,1.22-5.17,4.33,4.33,0,0,1,3.73-1.66,4.51,4.51,0,0,1,2.44.64,4.11,4.11,0,0,1,1.59,1.82h0c0-.16,0-.42,0-.76s0-.67.06-1a2.52,2.52,0,0,1,.06-.52h2.09c0,.44-.07,1.35-.07,2.74v10.09a5.71,5.71,0,0,1-1.38,4.18A5.61,5.61,0,0,1,136.91,131.06Zm3.34-11.79a6.46,6.46,0,0,0-1-3.79,3,3,0,0,0-2.51-1.39,2.69,2.69,0,0,0-2.45,1.22,7.64,7.64,0,0,0-.77,4,7.85,7.85,0,0,0,.72,3.89,2.65,2.65,0,0,0,2.46,1.19,3,3,0,0,0,2.55-1.36A6.29,6.29,0,0,0,140.25,119.27Z"/><path d="M157,119.26a7.5,7.5,0,0,1-1.52,5.16,5.67,5.67,0,0,1-4.43,1.7,5.36,5.36,0,0,1-4.37-1.77,9.56,9.56,0,0,1,0-10.22,6.7,6.7,0,0,1,8.9,0Q157,115.76,157,119.26Zm-2.3,0a7.5,7.5,0,0,0-.81-4,3,3,0,0,0-2.73-1.24,3.11,3.11,0,0,0-2.79,1.27,7.08,7.08,0,0,0-.86,4,7.24,7.24,0,0,0,.85,3.92,2.94,2.94,0,0,0,2.66,1.31,3.15,3.15,0,0,0,2.83-1.27A7.3,7.3,0,0,0,154.67,119.26Z"/><path d="M162,119v6.88h-2.19V115.74c0-.46,0-.95,0-1.47s0-1-.06-1.61h2.08c0,.38,0,.72,0,1s0,.56,0,.78,0,.41,0,.57,0,.26,0,.33h0a7.11,7.11,0,0,1,.8-1.85,2.36,2.36,0,0,1,1-.85,3.68,3.68,0,0,1,2.24-.12v2a3.92,3.92,0,0,0-1.17-.13,2.3,2.3,0,0,0-2.08,1.18A6.43,6.43,0,0,0,162,119Z"/><path d="M170.22,107.76v2.1H168v-2.1Zm0,4.9v13.21H168V112.66Z"/><path d="M178.67,125.77a8.28,8.28,0,0,1-2.23.3,2.49,2.49,0,0,1-2-.75,3.31,3.31,0,0,1-.66-2.24v-8.82h-1.53v-1.6h1.61l.65-3H176v3h2.44v1.6H176v8.34a2.16,2.16,0,0,0,.31,1.34,1.32,1.32,0,0,0,1.08.38,7.66,7.66,0,0,0,1.27-.17Z"/><path d="M182.72,114.92a5,5,0,0,1,1.7-1.9,4.8,4.8,0,0,1,2.52-.6,4.08,4.08,0,0,1,3.17,1.12,5.12,5.12,0,0,1,1,3.53v8.8h-2.21V117.5a4.19,4.19,0,0,0-.63-2.59,2.51,2.51,0,0,0-2.09-.79,3.13,3.13,0,0,0-2.49,1.07,4.27,4.27,0,0,0-.93,2.89v7.79h-2.2V107.76h2.2v4.71c0,.32,0,.67,0,1s0,.68,0,.94,0,.43,0,.48Z"/><path d="M196.67,118.22v7.65h-2.18V115.48c0-.77,0-1.39,0-1.86a7.55,7.55,0,0,0-.06-1h2.08c0,.18,0,.4,0,.66s0,.53,0,.81,0,.55,0,.79h0a4.59,4.59,0,0,1,1.63-2,4.22,4.22,0,0,1,2.23-.55,4.12,4.12,0,0,1,2.37.6,3.14,3.14,0,0,1,1.22,1.9h0a4.51,4.51,0,0,1,1.65-1.91,4.39,4.39,0,0,1,2.35-.59,3.58,3.58,0,0,1,2.91,1.09,5.51,5.51,0,0,1,.91,3.56v8.8h-2.17V117.5a4.8,4.8,0,0,0-.53-2.65,2.17,2.17,0,0,0-1.89-.73,2.63,2.63,0,0,0-2.24,1.06,5,5,0,0,0-.8,3v7.65h-2.17V117.5a4.8,4.8,0,0,0-.53-2.65,2.17,2.17,0,0,0-1.89-.73,2.63,2.63,0,0,0-2.22,1.07A4.9,4.9,0,0,0,196.67,118.22Z"/><path d="M225.17,122.22a3.32,3.32,0,0,1-1.41,2.88,6.62,6.62,0,0,1-3.94,1,7.29,7.29,0,0,1-3.81-.82,3.83,3.83,0,0,1-1.74-2.53l1.94-.38a2.43,2.43,0,0,0,1.16,1.56,5,5,0,0,0,2.45.49,4.53,4.53,0,0,0,2.44-.51,1.71,1.71,0,0,0,.78-1.54,1.64,1.64,0,0,0-.54-1.27,4.23,4.23,0,0,0-1.73-.8q-1.43-.37-2.25-.63t-1.29-.42a5.06,5.06,0,0,1-.72-.33,3.68,3.68,0,0,1-1.26-1.14,2.86,2.86,0,0,1-.45-1.65,3.2,3.2,0,0,1,1.29-2.75,6.29,6.29,0,0,1,3.75-.94,6.76,6.76,0,0,1,3.47.76,3.54,3.54,0,0,1,1.63,2.47l-2,.24a1.94,1.94,0,0,0-1-1.34,4.12,4.12,0,0,0-2.14-.47,4.2,4.2,0,0,0-2.2.45,1.5,1.5,0,0,0-.7,1.36,1.56,1.56,0,0,0,.4,1.11,3.11,3.11,0,0,0,1.54.71c1,.25,2,.51,2.9.8a7.67,7.67,0,0,1,2,.86,3.54,3.54,0,0,1,1.05,1.18A3.44,3.44,0,0,1,225.17,122.22Z"/><path d="M233.9,121.34a4.65,4.65,0,0,1,1-3,8,8,0,0,1,3.14-2.23,9.52,9.52,0,0,1-.7-1.8,7.19,7.19,0,0,1-.29-1.89,3.61,3.61,0,0,1,1.12-2.84,5.34,5.34,0,0,1,6.14-.08,3.13,3.13,0,0,1,1.13,2.54,3.34,3.34,0,0,1-.39,1.59,4.4,4.4,0,0,1-1.25,1.43,11.73,11.73,0,0,1-1.42.89,20.5,20.5,0,0,1-1.94.88,27.51,27.51,0,0,0,3.58,5,15.1,15.1,0,0,0,2.09-5l1.77.53a18.15,18.15,0,0,1-2.59,5.72,3.51,3.51,0,0,0,2.54,1.2,4.35,4.35,0,0,0,1.43-.2v1.65a4.59,4.59,0,0,1-1.72.27,5,5,0,0,1-2-.39,4.92,4.92,0,0,1-1.65-1.16,6.68,6.68,0,0,1-4.54,1.65,5.94,5.94,0,0,1-4.07-1.27A4.42,4.42,0,0,1,233.9,121.34Zm8.83,1.88c-.81-1-1.53-1.89-2.18-2.82a28.9,28.9,0,0,1-1.72-2.76c-1.92.83-2.88,2-2.88,3.68a3,3,0,0,0,1,2.34,3.7,3.7,0,0,0,2.58.86,4.68,4.68,0,0,0,1.74-.34A4.42,4.42,0,0,0,242.73,123.22Zm.9-11.18a1.82,1.82,0,0,0-.61-1.43,2.37,2.37,0,0,0-4.05,1.81,6.81,6.81,0,0,0,.79,3,15.63,15.63,0,0,0,2.36-1.13,3.66,3.66,0,0,0,1.13-1A2,2,0,0,0,243.63,112Z"/><path d="M272,113.85a5.38,5.38,0,0,1-.72,2.82,4.82,4.82,0,0,1-2,1.85,7.18,7.18,0,0,1-3.16.65H261v6.7H258.7v-17.2h7.23a6.65,6.65,0,0,1,4.48,1.36A4.73,4.73,0,0,1,272,113.85Zm-2.34,0q0-3.33-4-3.33H261v6.79h4.72a4.34,4.34,0,0,0,2.93-.86A3.3,3.3,0,0,0,269.66,113.87Z"/><path d="M277.25,119v6.88h-2.2V115.74c0-.46,0-.95,0-1.47s0-1,0-1.61h2.08c0,.38,0,.72,0,1s0,.56,0,.78,0,.41,0,.57v.33h.05a7.09,7.09,0,0,1,.81-1.85,2.34,2.34,0,0,1,1-.85,3.41,3.41,0,0,1,1.36-.24,3.35,3.35,0,0,1,.89.12v2a4,4,0,0,0-1.17-.13,2.32,2.32,0,0,0-2.09,1.18A6.53,6.53,0,0,0,277.25,119Z"/><path d="M285.51,107.76v2.1h-2.19v-2.1Zm0,4.9v13.21h-2.19V112.66Z"/><path d="M299.61,112.66l-4.93,13.21h-2.6l-4.79-13.21h2.34l2.9,8.6c.06.16.16.48.3,1l.55,1.92c.1-.32.21-.65.31-1s.2-.69.3-1,.2-.62.29-.87l3-8.62Z"/><path d="M304.75,126.12a4,4,0,0,1-3-1.05,4,4,0,0,1-1-2.88,3.82,3.82,0,0,1,1.35-3.15,7.13,7.13,0,0,1,4.35-1.18l3,0v-.72a3.18,3.18,0,0,0-.69-2.3,2.86,2.86,0,0,0-2.14-.7,3.66,3.66,0,0,0-2.15.5,2.24,2.24,0,0,0-.81,1.6l-2.29-.21q.56-3.56,5.3-3.56a5.38,5.38,0,0,1,3.74,1.14,4.22,4.22,0,0,1,1.26,3.3v5.69a3.3,3.3,0,0,0,.26,1.47,1,1,0,0,0,1,.5,3.08,3.08,0,0,0,.72-.09v1.37q-.41.09-.84.15a8.06,8.06,0,0,1-.85,0,2.22,2.22,0,0,1-1.78-.64,3.28,3.28,0,0,1-.63-2h-.07a5.38,5.38,0,0,1-2,2.15A5.44,5.44,0,0,1,304.75,126.12Zm4.68-6.77-2.41.05a7.24,7.24,0,0,0-2.34.32,2.45,2.45,0,0,0-1.23.9,2.7,2.7,0,0,0-.43,1.6,2,2,0,0,0,2.23,2.25,4.19,4.19,0,0,0,2.15-.55,4.07,4.07,0,0,0,1.49-1.51,4,4,0,0,0,.54-2Z"/><path d="M320.35,126.12a5.21,5.21,0,0,1-4.23-1.76,9.65,9.65,0,0,1,0-10.19,5.17,5.17,0,0,1,4.2-1.75,5.27,5.27,0,0,1,3.36,1,4.6,4.6,0,0,1,1.68,2.89l-2.26.17a2.89,2.89,0,0,0-.86-1.74,3.34,3.34,0,0,0-4.51.51,9.87,9.87,0,0,0,.05,7.81,2.78,2.78,0,0,0,2.5,1.27,3,3,0,0,0,2-.63,2.9,2.9,0,0,0,1-2l2.23.15a4.9,4.9,0,0,1-.85,2.21,4.46,4.46,0,0,1-1.76,1.45A5.63,5.63,0,0,1,320.35,126.12Z"/><path d="M328.44,131.06a8.28,8.28,0,0,1-1.52-.13v-1.65a6.5,6.5,0,0,0,1,.07,2.84,2.84,0,0,0,1.9-.76,6.47,6.47,0,0,0,1.55-2.78l-5.24-13.15h2.35l2.78,7.3c.21.52.42,1.11.66,1.77s.41,1.24.54,1.75c.2-.58.41-1.15.62-1.72l.6-1.71,2.53-7.39h2.32l-5.08,13.21c-.28.7-.54,1.31-.8,1.84A9.28,9.28,0,0,1,332,129a4.87,4.87,0,0,1-1.57,1.54A3.72,3.72,0,0,1,328.44,131.06Z"/><path d="M112.37,148.73v7.14H110v-17.2h8.09a6.94,6.94,0,0,1,4.49,1.3,4.45,4.45,0,0,1,1.58,3.62,4.75,4.75,0,0,1-1.12,3.22,5,5,0,0,1-3.08,1.65l4.88,7.41H122.2l-4.47-7.14Zm9.48-5.11a2.73,2.73,0,0,0-1-2.29,4.7,4.7,0,0,0-2.94-.79h-5.53v6.35H118a4.27,4.27,0,0,0,2.85-.86A3,3,0,0,0,121.85,143.62Z"/><path d="M129.41,149.73a5.7,5.7,0,0,0,.94,3.51,3.25,3.25,0,0,0,2.75,1.23,4,4,0,0,0,2.29-.58,2.81,2.81,0,0,0,1.16-1.45l1.93.55c-.79,2.08-2.58,3.13-5.38,3.13a5.62,5.62,0,0,1-4.46-1.75,7.61,7.61,0,0,1-1.54-5.19,7.35,7.35,0,0,1,1.54-5,5.51,5.51,0,0,1,4.37-1.74,5.34,5.34,0,0,1,4.37,1.76,8.09,8.09,0,0,1,1.45,5.26v.29Zm7.15-1.68A5.09,5.09,0,0,0,135.5,145a3.66,3.66,0,0,0-5.06.11,4.56,4.56,0,0,0-1,2.94Z"/><path d="M151.54,152.22a3.32,3.32,0,0,1-1.41,2.88,6.63,6.63,0,0,1-3.95,1,7.27,7.27,0,0,1-3.8-.82,3.83,3.83,0,0,1-1.74-2.53l1.94-.38a2.43,2.43,0,0,0,1.16,1.56,5,5,0,0,0,2.44.49,4.57,4.57,0,0,0,2.45-.51,1.71,1.71,0,0,0,.78-1.54,1.64,1.64,0,0,0-.54-1.27,4.3,4.3,0,0,0-1.73-.8c-.95-.25-1.7-.46-2.26-.62s-1-.31-1.28-.43a4.19,4.19,0,0,1-.72-.33,3.68,3.68,0,0,1-1.26-1.14,2.85,2.85,0,0,1-.45-1.64,3.23,3.23,0,0,1,1.28-2.76,6.3,6.3,0,0,1,3.76-.94,6.69,6.69,0,0,1,3.47.77,3.5,3.5,0,0,1,1.63,2.46l-2,.25a2,2,0,0,0-1-1.35,5.35,5.35,0,0,0-4.34,0,1.51,1.51,0,0,0-.71,1.37,1.56,1.56,0,0,0,.41,1.1,3.06,3.06,0,0,0,1.53.71c1,.25,2,.51,2.91.8a7.67,7.67,0,0,1,2,.86,3.54,3.54,0,0,1,1.05,1.18A3.44,3.44,0,0,1,151.54,152.22Z"/><path d="M155.81,149.73a5.77,5.77,0,0,0,.94,3.51,3.26,3.26,0,0,0,2.75,1.23,4,4,0,0,0,2.29-.58,2.88,2.88,0,0,0,1.17-1.45l1.92.55c-.79,2.08-2.58,3.13-5.38,3.13a5.63,5.63,0,0,1-4.46-1.75,7.66,7.66,0,0,1-1.53-5.19,7.4,7.4,0,0,1,1.53-5,5.52,5.52,0,0,1,4.38-1.74,5.36,5.36,0,0,1,4.37,1.76,8.15,8.15,0,0,1,1.45,5.26v.29Zm7.16-1.68a5.15,5.15,0,0,0-1.06-3.05,3.26,3.26,0,0,0-2.53-1,3.18,3.18,0,0,0-2.53,1.07,4.56,4.56,0,0,0-1,2.94Z"/><path d="M171.4,156.12a3.58,3.58,0,0,1-4-3.93,3.82,3.82,0,0,1,1.35-3.15,7.13,7.13,0,0,1,4.35-1.18l3,0v-.73a3.18,3.18,0,0,0-.69-2.3,2.86,2.86,0,0,0-2.14-.7,3.66,3.66,0,0,0-2.15.5,2.24,2.24,0,0,0-.81,1.6L168,146c.37-2.37,2.14-3.56,5.29-3.56a5.43,5.43,0,0,1,3.75,1.14,4.22,4.22,0,0,1,1.26,3.3v5.69a3.17,3.17,0,0,0,.26,1.47,1,1,0,0,0,1,.5,3.08,3.08,0,0,0,.72-.09v1.37q-.41.09-.84.15a8.06,8.06,0,0,1-.85,0,2.22,2.22,0,0,1-1.78-.64,3.28,3.28,0,0,1-.63-2h-.07a5.38,5.38,0,0,1-2,2.15A5.47,5.47,0,0,1,171.4,156.12Zm4.68-6.77-2.41.05a7.24,7.24,0,0,0-2.34.32,2.45,2.45,0,0,0-1.23.9,2.7,2.7,0,0,0-.43,1.6,2,2,0,0,0,2.23,2.25,4.19,4.19,0,0,0,2.15-.55,4,4,0,0,0,1.48-1.51,3.87,3.87,0,0,0,.55-2Z"/><path d="M184.18,149v6.88H182V145.74c0-.46,0-1,0-1.46s0-1.05-.06-1.62H184c0,.38,0,.72,0,1s0,.56,0,.78,0,.41,0,.57,0,.26,0,.33h0a7.44,7.44,0,0,1,.81-1.85,2.36,2.36,0,0,1,1-.85,3.68,3.68,0,0,1,2.24-.12v2a3.92,3.92,0,0,0-1.17-.13,2.32,2.32,0,0,0-2.09,1.18A6.53,6.53,0,0,0,184.18,149Z"/><path d="M195.33,156.12a5.18,5.18,0,0,1-4.23-1.76,9.59,9.59,0,0,1,0-10.19,5.13,5.13,0,0,1,4.19-1.75,5.3,5.3,0,0,1,3.37,1.05,4.6,4.6,0,0,1,1.68,2.89l-2.26.17a3,3,0,0,0-.87-1.74,3.33,3.33,0,0,0-4.5.51,7.3,7.3,0,0,0-.78,3.91,7.18,7.18,0,0,0,.83,3.9,2.77,2.77,0,0,0,2.5,1.27,3.05,3.05,0,0,0,2-.63,3,3,0,0,0,1-2l2.22.15a4.9,4.9,0,0,1-.85,2.21,4.46,4.46,0,0,1-1.76,1.45A5.61,5.61,0,0,1,195.33,156.12Z"/><path d="M205,144.92a5,5,0,0,1,1.7-1.9,4.8,4.8,0,0,1,2.52-.6,4.08,4.08,0,0,1,3.17,1.12,5.12,5.12,0,0,1,1,3.53v8.8h-2.21V147.5a4.19,4.19,0,0,0-.63-2.59,2.51,2.51,0,0,0-2.09-.79,3.13,3.13,0,0,0-2.49,1.07,4.27,4.27,0,0,0-.93,2.89v7.79h-2.2V137.76H205v4.71c0,.32,0,.67,0,1s0,.68,0,.94,0,.43,0,.48Z"/><path d="M230.85,156.12a8.09,8.09,0,0,1-3.69-.79,5.73,5.73,0,0,1-2.44-2.23,6.66,6.66,0,0,1-.86-3.48v-11h2.33v10.76a4.92,4.92,0,0,0,1.19,3.57,4.61,4.61,0,0,0,3.46,1.22,4.44,4.44,0,0,0,4.89-4.95v-10.6h2.32V149.4a7,7,0,0,1-.88,3.59,5.91,5.91,0,0,1-2.51,2.31A8.24,8.24,0,0,1,230.85,156.12Z"/><path d="M243.91,148.22v7.65h-2.2V145.48c0-.77,0-1.39,0-1.86s0-.79-.06-1h2.08c0,.16,0,.35,0,.59s0,.5,0,.78,0,.58,0,.89h0a4.3,4.3,0,0,1,4.22-2.5,4.09,4.09,0,0,1,3.18,1.11,5.13,5.13,0,0,1,1,3.54v8.8h-2.21V147.5a4.26,4.26,0,0,0-.61-2.64,2.62,2.62,0,0,0-2.11-.74,3.1,3.1,0,0,0-2.5,1.08A4.56,4.56,0,0,0,243.91,148.22Z"/><path d="M257.75,137.76v2.1h-2.19v-2.1Zm0,4.9v13.21h-2.19V142.66Z"/><path d="M266.2,155.77a8.15,8.15,0,0,1-2.22.3,2.5,2.5,0,0,1-2-.75,3.31,3.31,0,0,1-.66-2.24v-8.82h-1.52v-1.6h1.61l.65-2.95h1.46v2.95H266v1.6h-2.44v8.34a2.23,2.23,0,0,0,.31,1.34,1.35,1.35,0,0,0,1.08.38,7.53,7.53,0,0,0,1.27-.17Z"/><path d="M131.21,176.66a11.56,11.56,0,0,1-.7,4.1,6.56,6.56,0,0,1-2,2.84,4.35,4.35,0,0,1-2.8,1,2.93,2.93,0,0,1-1.87-.53,2,2,0,0,1-.66-1.62c0-.13,0-.28,0-.42s0-.29,0-.43h-.07a5.9,5.9,0,0,1-2,2.25,4.72,4.72,0,0,1-2.57.75,3.67,3.67,0,0,1-3-1.24,5.15,5.15,0,0,1-1.06-3.46,9,9,0,0,1,.79-3.72,6.74,6.74,0,0,1,2.21-2.73,5.21,5.21,0,0,1,3.13-1,3.68,3.68,0,0,1,3.67,2.22h.08l.47-2h1.91l-1.42,6.18A14.77,14.77,0,0,0,125,182a1.28,1.28,0,0,0,.25.86.93.93,0,0,0,.74.28,2.49,2.49,0,0,0,1.81-.84,5.78,5.78,0,0,0,1.3-2.32,10.81,10.81,0,0,0,.47-3.27,8,8,0,0,0-.94-3.88,6.42,6.42,0,0,0-2.71-2.6,9,9,0,0,0-4.14-.91,10.36,10.36,0,0,0-5.23,1.31,9.14,9.14,0,0,0-3.56,3.77,11.67,11.67,0,0,0-1.3,5.51,8.62,8.62,0,0,0,1,4.15,6.47,6.47,0,0,0,2.76,2.77,8.92,8.92,0,0,0,4.23,1,14.9,14.9,0,0,0,3.59-.45,16.82,16.82,0,0,0,3.77-1.52l.68,1.36a14.88,14.88,0,0,1-3.84,1.62,16.16,16.16,0,0,1-4.2.56,10.69,10.69,0,0,1-5.14-1.18,7.92,7.92,0,0,1-3.37-3.31,10.24,10.24,0,0,1-1.17-5,12.82,12.82,0,0,1,1.53-6.22,11,11,0,0,1,4.22-4.35,11.87,11.87,0,0,1,6-1.55,10.88,10.88,0,0,1,5.08,1.1,7.82,7.82,0,0,1,3.27,3.12A9.43,9.43,0,0,1,131.21,176.66Zm-7.4.09a2.64,2.64,0,0,0-.81-2,3,3,0,0,0-2.15-.76,3.38,3.38,0,0,0-2.19.78,5.18,5.18,0,0,0-1.51,2.15,8,8,0,0,0-.54,3,3.92,3.92,0,0,0,.58,2.29A2,2,0,0,0,119,183a3.48,3.48,0,0,0,1.83-.52,5.3,5.3,0,0,0,1.54-1.42,5.77,5.77,0,0,0,.8-1.45,11.11,11.11,0,0,0,.5-1.59A6.45,6.45,0,0,0,123.81,176.75Z"/><path d="M150.22,177.09a9.81,9.81,0,0,1-1.05,4.69,7.53,7.53,0,0,1-2.94,3,8.77,8.77,0,0,1-4.38,1.06h-6.43v-17.2h5.69q4.37,0,6.74,2.19A8.07,8.07,0,0,1,150.22,177.09Zm-2.34,0a6.42,6.42,0,0,0-1.75-4.87,7.05,7.05,0,0,0-5.07-1.68h-3.31V184h3.83a6.39,6.39,0,0,0,3.33-.84,5.7,5.7,0,0,0,2.19-2.39A8.09,8.09,0,0,0,147.88,177.09Z"/><path d="M160.34,186.12a8.08,8.08,0,0,1-3.68-.79,5.67,5.67,0,0,1-2.44-2.23,6.66,6.66,0,0,1-.87-3.48v-11h2.33v10.76a4.88,4.88,0,0,0,1.2,3.57,4.58,4.58,0,0,0,3.45,1.22,4.45,4.45,0,0,0,4.9-4.95v-10.6h2.32V179.4a7,7,0,0,1-.89,3.59,5.89,5.89,0,0,1-2.5,2.31A8.31,8.31,0,0,1,160.34,186.12Z"/><path d="M178.26,170.58v15.29h-2.32V170.58H170v-1.91h14.13v1.91Z"/><path d="M189.13,177.9v8H186.8v-17.2h2.33V176h9.3v-7.28h2.33v17.2h-2.33v-8Z"/></g></g></svg>