<?xml version="1.0" encoding="UTF-8" standalone="no"?>
<svg
   version="1.0"
   width="243.92213pt"
   height="244.6456pt"
   viewBox="0 0 243.92213 244.6456"
   preserveAspectRatio="none"
   id="svg31"
   xmlns="http://www.w3.org/2000/svg"
   xmlns:svg="http://www.w3.org/2000/svg">
  <defs
     id="defs35" />
  <g
     transform="matrix(0.1,0,0,-0.1,-1.585,244.78196)"
     fill="#383F49"
     stroke="none"
     id="g29">
    <path
       d="M 1110,2444 C 829,2408 570,2287 383,2102 212,1935 107,1754 43,1520 19,1433 16,1409 16,1225 15,1090 19,1007 28,970 71,795 149,618 238,497 l 49,-68 -5,178 c -12,418 80,743 303,1078 206,311 479,532 835,674 68,28 118,52 110,55 -73,24 -325,42 -420,30 z"
       id="path23" />
    <path
       d="M 1491,2244 C 1367,2211 1230,2113 1136,1991 973,1779 856,1459 776,1011 l -6,-34 137,6 c 367,17 678,144 880,360 78,84 114,137 163,239 58,121 73,194 67,308 -10,203 -102,322 -275,359 -71,15 -185,13 -251,-5 z"
       id="path25" />
    <path
       d="m 2323,1674 c -14,-80 -74,-207 -137,-290 C 1944,1063 1430,850 898,850 H 760 v -34 c 0,-64 40,-268 70,-359 44,-129 96,-222 167,-298 128,-136 289,-184 478,-144 473,100 847,470 957,947 26,112 31,383 10,483 -30,133 -85,295 -101,295 -4,0 -12,-30 -18,-66 z"
       id="path27" />
  </g>
</svg>
