<?xml version="1.0" encoding="UTF-8" standalone="no"?>
<svg
   viewBox="0 0 123.64975 83.876419"
   version="1.1"
   id="svg59"
   width="123.64975"
   height="83.876419"
   preserveAspectRatio="none"
   xmlns="http://www.w3.org/2000/svg"
   xmlns:svg="http://www.w3.org/2000/svg">
  <defs
     id="defs63" />
  <path
     fill="#383F49"
     d="m 104.08875,83.710421 v -38.779 c 0,-8.164 -3.397,-12.244 -10.033999,-12.244 -6.629,0 -10.034,4.08 -10.034,12.244 v 38.779 h -19.897 v -38.779 c 0,-8.164 -3.228,-12.244 -9.862,-12.244 -6.633,0 -10.036,4.08 -10.036,12.244 v 38.779 h -19.729 v -40.986 c 0,-8.504 2.891,-14.801 8.844,-19.223 5.102,-3.91 12.246,-5.777 20.92,-5.777 9.015,0 15.478,2.207 19.727,6.801 3.57,-4.594 10.207,-6.801 19.897,-6.801 8.843999,0 15.818999,1.867 20.921999,5.777 5.951,4.422 8.843,10.719 8.843,19.223 v 41.152 h -19.563 v -0.166 z"
     id="path37" />
  <path
     fill="#383F49"
     d="m 26.368751,27.583421 -2.041,10.207 c 18.708,6.291 36.395,0.166 45.751,-16.158 -13.778,-9.522 -26.535,0.17 -43.71,5.951"
     id="path39" />
  <path
     fill="#383F49"
     d="m 26.368751,25.036421 c -0.681,3.91 -1.192,7.65 -1.872,11.563 17.857,6.125 35.375,0.85 44.73,-15.137 -11.909,-13.7760001 -25.17,-2.383 -42.858,3.574"
     id="path41" />
  <path
     fill="#383F49"
     d="m 47.628751,29.624421 c -8.164,-1.701 -17.009,2.555 -23.131,6.975 -3.912,-28.5700001 13.777,-27.8930001 36.903,-20.75 -1.529,6.975 -4.083,16.33 -8.502,21.941 -0.169,-3.744 -1.869,-6.293 -5.27,-8.166"
     id="path43" />
  <path
     fill="#383F49"
     d="M 0.00775052,25.036421 C 29.939751,7.0054209 46.777751,3.6064209 81.641751,0.03642094 41.163751,32.005421 40.142751,25.036421 0.00775052,25.036421"
     id="path45" />
  <path
     stroke="#383F49"
     stroke-width="0.5"
     fill="none"
     d="M 81.641751,0.20242094 49.496751,23.501421"
     id="path47" />
  <path
     opacity="0.23"
     fill="#383F49"
     enable-background="new"
     d="m 43.374751,12.616421 c 0.34,3.744 -0.511,-3.5720001 0,0"
     id="path49" />
  <path
     stroke="#383F49"
     stroke-width="0.5"
     fill="none"
     d="m 0.00775052,25.036421 49.48900048,-1.535"
     id="path51" />
  <path
     stroke="#383F49"
     stroke-width="0.5"
     d="m 40.313751,12.958421 c -8.504,2.381 -36.3940005,8.504 -36.7370005,12.078 -0.849,6.631 -0.167,17.176 -0.167,17.176"
     fill="none"
     id="path53" />
  <path
     fill="#383F49"
     d="m 5.9607505,67.552421 c -3.063,-7.652 -6.80399998,-16.158 -2.384,-26.703 2.893,9.863 2.384,17.347 2.384,26.703"
     id="path55" />
  <path
     fill="#383F49"
     d="m 38.905751,11.800421 c 0.708,-0.25 1.384,-0.17 1.509,0.184 0.126,0.355 -0.344,0.846 -1.052,1.096 -0.709,0.256 -1.384,0.172 -1.51,-0.184 -0.127,-0.352 0.344,-0.844 1.053,-1.096 z"
     id="path57" />
</svg>
